<?xml version="1.0" standalone="no"?>
<!DOCTYPE svg PUBLIC "-//W3C//DTD SVG 20010904//EN"
 "http://www.w3.org/TR/2001/REC-SVG-20010904/DTD/svg10.dtd">
<svg version="1.0" xmlns="http://www.w3.org/2000/svg"
 width="187.000000pt" height="40.000000pt" viewBox="0 0 187.000000 40.000000"
 preserveAspectRatio="xMidYMid meet">

<g transform="translate(0.000000,40.000000) scale(0.100000,-0.100000)"
fill="#000000" stroke="none">
<path d="M262 360 c-42 -30 -58 -59 -24 -45 33 14 47 15 62 6 12 -9 10 -14
-12 -38 -31 -32 -48 -72 -48 -111 0 -45 -19 -100 -46 -132 -15 -17 -20 -30
-13 -30 22 0 101 72 111 102 8 22 16 28 38 28 16 0 35 3 44 6 9 4 16 1 16 -6
0 -26 33 -80 49 -80 22 1 91 59 70 60 -23 0 -42 33 -75 124 -52 149 -91 175
-172 116z m102 -147 c7 -21 4 -23 -24 -23 -32 0 -32 1 -25 37 4 21 9 42 12 47
6 9 26 -23 37 -61z"/>
<path d="M536 355 c-36 -32 -39 -41 -12 -36 19 4 26 -27 26 -122 0 -96 10
-137 32 -137 5 0 26 14 45 31 33 28 34 31 14 36 -19 5 -21 12 -21 88 0 89 11
112 50 100 29 -9 26 -56 -6 -94 -24 -29 -25 -34 -13 -63 17 -41 67 -98 86 -98
8 0 28 11 44 24 l29 25 -27 13 c-15 7 -38 28 -50 47 l-23 35 25 26 c13 14 30
40 36 58 22 63 47 38 105 -100 44 -107 55 -128 67 -128 12 0 87 53 87 63 0 4
-9 7 -20 7 -12 0 -25 10 -31 23 -9 19 -5 28 29 64 98 103 68 221 -37 146 -47
-33 -51 -43 -16 -43 22 0 25 -4 25 -38 0 -21 -6 -46 -13 -55 -11 -15 -17 -7
-47 64 -44 103 -55 111 -103 75 l-37 -28 -31 26 c-38 32 -46 32 -88 -4 l-35
-29 -18 29 c-10 17 -21 30 -25 30 -5 -1 -26 -16 -47 -35z"/>
<path d="M1152 360 c-42 -30 -57 -58 -24 -45 33 14 47 15 62 6 12 -9 9 -16
-18 -44 -27 -28 -35 -46 -42 -99 -12 -80 -17 -94 -47 -135 -13 -18 -20 -33
-15 -33 20 0 100 71 112 99 10 24 19 31 41 31 15 0 31 5 35 12 4 7 16 -9 30
-40 13 -29 29 -52 35 -52 20 0 89 51 83 61 -3 5 -9 7 -14 4 -14 -9 -36 32 -74
134 -19 51 -42 102 -52 112 -25 27 -65 23 -112 -11z m87 -111 c16 -48 14 -59
-14 -59 -26 0 -32 19 -19 68 9 31 20 28 33 -9z"/>
<path d="M1428 356 c-43 -37 -46 -46 -19 -46 26 0 31 -18 31 -121 0 -86 10
-129 30 -129 12 0 70 50 70 61 0 5 -7 9 -15 9 -12 0 -15 14 -15 66 l0 67 56
-79 c61 -85 93 -124 104 -124 4 0 24 14 46 30 35 29 36 31 16 37 -21 5 -22 11
-22 113 0 90 -3 112 -19 131 l-18 23 -41 -35 c-45 -37 -54 -54 -22 -44 22 7
34 -22 28 -71 -3 -29 -3 -29 -37 21 -51 73 -101 125 -120 125 -9 -1 -33 -16
-53 -34z"/>
</g>
</svg>
